<svg xmlns="http://www.w3.org/2000/svg" width="512" height="512" fill="none" viewBox="0 0 24 24" id="analysis"><clipPath id="a"><path d="m0 0h24v24h-24z"></path></clipPath><g clip-path="url(#a)"><path fill="#000" d="m22.8516 16.3976-3.9329.0141-2.3531-15.520311v-.009375c-.0797-.501563-.4781-.8625001-.9609-.88125012-.4828-.01874998-.9047.30937512-1.0219.79687512l-4.2 18.323461-2.56874-10.78596-.00469-.01875c-.11718-.45938-.50625-.77344-.96093-.78281-.45469-.00469-.85313.29062-.98438.74062l-.00469.01875-2.00625 7.92185-2.91562-.0047c-.515625 0-.9375.4219-.9375.9422 0 .5157.421875.9422.9375.9422h3.65625c.42656-.0281.77812-.3187.90469-.7406l.00468-.0188 1.29844-5.1375 2.61094 10.9641.00469.0141c.15468.6047.62341.8156.97971.8156h.0093c.3563 0 .825-.2203.975-.8344l4.0079-17.49374 1.7765 11.73754v.0093c.075.4782.4547.8438.9188.8813l.0422.0047 4.725-.0188c.5156 0 .9375-.4218.9328-.9422.0047-.5203-.4172-.9375-.9328-.9375z"></path></g></svg>