<svg id="SvgjsSvg1001" width="288" height="288" xmlns="http://www.w3.org/2000/svg" version="1.1" xmlns:xlink="http://www.w3.org/1999/xlink" xmlns:svgjs="http://svgjs.com/svgjs"><defs id="SvgjsDefs1002"></defs><g id="SvgjsG1008"><svg xmlns="http://www.w3.org/2000/svg" viewBox="0 0 512 512" width="288" height="288"><circle cx="448" cy="272" r="8" fill="#ff8732" class="color000 svgShape"></circle><path d="M464 264c1.9 0 3.8-.7 5.3-2.1 3.3-3 3.6-8 .6-11.3-12.5-13.9-31.4-13.9-43.9 0-3 3.3-2.7 8.3.6 11.3 3.3 3 8.3 2.7 11.3-.6 2.2-2.4 5.7-5.4 10.1-5.4s7.9 2.9 10.1 5.4c1.5 1.8 3.7 2.7 5.9 2.7z" fill="#ff8732" class="color000 svgShape"></path><path d="M480 248c1.9 0 3.7-.6 5.2-2 3.3-2.9 3.7-8 .8-11.3-10.5-12.1-24-18.8-38-18.8s-27.5 6.7-38 18.8c-2.9 3.3-2.6 8.4.8 11.3 3.3 2.9 8.4 2.6 11.3-.8 5.3-6 14-13.2 26-13.2s20.7 7.2 26 13.2c1.4 1.9 3.6 2.8 5.9 2.8z" fill="#ff8732" class="color000 svgShape"></path><path d="M488 296h-80v-68.9c11.3-12.3 25.4-19.1 40-19.1 15.4 0 30.3 7.5 41.9 21.2 1.6 1.9 3.8 2.8 6.1 2.8 1.8 0 3.7-.6 5.2-1.9 3.4-2.9 3.8-7.9.9-11.3-14.4-17-34.2-26.8-54.1-26.8-14 0-27.9 4.9-40 13.8V24c0-8.9-7.9-14.7-49.3-19.3-27.5-3-64-4.7-102.7-4.7s-75.2 1.7-102.7 4.7C111.8 9.3 104 15.1 104 24v126.6l-4.3-9.9c-1-2.3-2.9-3.9-5.3-4.6-2.4-.6-4.9-.1-6.9 1.4l-52.4 40.1c-2.9 2.2-3.9 6.2-2.5 9.5l16.5 38.1c-2.7.2-5.3.7-7.9 1.8-5.9 2.5-10.4 7.2-12.8 13.2-2.4 6-2.3 12.5.3 18.4 3.9 9 12.8 14.5 22.1 14.5 3.2 0 6.4-.6 9.5-2 5.9-2.5 10.4-7.2 12.8-13.2 2.4-6 2.3-12.5-.3-18.4l-13.4-31 39.3-30.1 5.4 12.4v9.5c-1.4.3-2.7.7-4.1 1.3-12.1 5.3-17.7 19.4-12.5 31.6 2.5 5.9 7.2 10.4 13.2 12.8 1.1.4 2.2.7 3.4 1v241c0 8.9 7.9 14.7 49.3 19.3 27.5 3.1 64 4.7 102.7 4.7 57.4 0 108.8-3.8 132.9-9.6 4.4 5.8 11.3 9.6 19.1 9.6h80c13.2 0 24-10.8 24-24V320c-.1-13.2-10.9-24-24.1-24zM256 16c59.4 0 103.1 3.9 124.2 8-21.1 4.1-64.9 8-124.2 8s-103.1-3.9-124.2-8c21-4.1 64.8-8 124.2-8zM120 37.6c7.4 2.1 18.1 3.9 33.3 5.6 27.5 3.1 64 4.7 102.7 4.7s75.2-1.7 102.7-4.7c15.2-1.7 25.9-3.5 33.3-5.6v264.6c-4.9 4.4-8 10.7-8 17.8v15.1c-22.8 5.3-73.4 8.9-128 8.9-74.8 0-124.9-6.2-136-11.2v-87.7c11.4-5.6 16.6-19.2 11.5-31L120 187.6v-150zm0 447.3V349.6c7.4 2.1 18.1 3.9 33.3 5.6 27.5 3.1 64 4.7 102.7 4.7 54.4 0 102.3-3.3 128-8.5V487c-22.7 5.3-73.1 8.9-128 8.9-74.7.1-124.8-6.1-136-11zm376 3.1c0 4.4-3.6 8-8 8h-80c-4.4 0-8-3.6-8-8V320c0-4.4 3.6-8 8-8h2.2l2.5 7.6c3.3 9.8 12.4 16.4 22.8 16.4h24.9c10.3 0 19.5-6.6 22.8-16.4l2.5-7.6h2.2c4.4 0 8 3.6 8 8v168z" fill="#ff8732" class="color000 svgShape"></path><path d="M468 381.4c-3.8-2.2-8.7-.9-10.9 2.9-2.2 3.8-.9 8.7 2.9 10.9 7.4 4.3 12 12.2 12 20.8 0 13.2-10.8 24-24 24s-24-10.8-24-24c0-8.5 4.6-16.5 12-20.8 3.8-2.2 5.1-7.1 2.9-10.9s-7.1-5.1-10.9-2.9c-12.3 7.1-20 20.4-20 34.6 0 22.1 17.9 40 40 40s40-17.9 40-40c0-14.2-7.7-27.5-20-34.6z" fill="#ff8732" class="color000 svgShape"></path><path d="M448 408c4.4 0 8-3.6 8-8v-24c0-4.4-3.6-8-8-8s-8 3.6-8 8v24c0 4.4 3.6 8 8 8zm16-296V63.8c2.7-.2 6-.1 9 1.3 3.4 1.6 5.8 4.7 7.5 9.5 1.4 4.2 6 6.4 10.2 5 4.2-1.4 6.4-6 5-10.1-3-8.8-8.4-15.3-15.7-18.8-12.2-5.9-25.2-1.5-26.6-.9-3.2 1.1-5.3 4.2-5.3 7.5v32.2c-2.5-.9-5.2-1.5-8-1.5-13.2 0-24 10.8-24 24s10.8 24 24 24 23.9-10.8 23.9-24zM256 386.3c-26.5 0-48 21.5-48 48s21.5 48 48 48 48-21.5 48-48-21.6-48-48-48zm0 40c4.4 0 8 3.6 8 8s-3.6 8-8 8-8-3.6-8-8 3.6-8 8-8zM152 96h8c4.4 0 8-3.6 8-8s-3.6-8-8-8h-8c-4.4 0-8 3.6-8 8s3.6 8 8 8zm40 0h8c4.4 0 8-3.6 8-8s-3.6-8-8-8h-8c-4.4 0-8 3.6-8 8s3.6 8 8 8zm40 0h8c4.4 0 8-3.6 8-8s-3.6-8-8-8h-8c-4.4 0-8 3.6-8 8s3.6 8 8 8zm40 0h8c4.4 0 8-3.6 8-8s-3.6-8-8-8h-8c-4.4 0-8 3.6-8 8s3.6 8 8 8zm40 0h8c4.4 0 8-3.6 8-8s-3.6-8-8-8h-8c-4.4 0-8 3.6-8 8s3.6 8 8 8zm40 0h8c4.4 0 8-3.6 8-8s-3.6-8-8-8h-8c-4.4 0-8 3.6-8 8s3.6 8 8 8zm-80 32h8c4.4 0 8-3.6 8-8s-3.6-8-8-8h-8c-4.4 0-8 3.6-8 8s3.6 8 8 8zm-120 0h8c4.4 0 8-3.6 8-8s-3.6-8-8-8h-8c-4.4 0-8 3.6-8 8s3.6 8 8 8zm40 0h8c4.4 0 8-3.6 8-8s-3.6-8-8-8h-8c-4.4 0-8 3.6-8 8s3.6 8 8 8zm40 0h8c4.4 0 8-3.6 8-8s-3.6-8-8-8h-8c-4.4 0-8 3.6-8 8s3.6 8 8 8zm80 0h8c4.4 0 8-3.6 8-8s-3.6-8-8-8h-8c-4.4 0-8 3.6-8 8s3.6 8 8 8zm40 0h8c4.4 0 8-3.6 8-8s-3.6-8-8-8h-8c-4.4 0-8 3.6-8 8s3.6 8 8 8zm-80 32h8c4.4 0 8-3.6 8-8s-3.6-8-8-8h-8c-4.4 0-8 3.6-8 8s3.6 8 8 8zm-120 0h8c4.4 0 8-3.6 8-8s-3.6-8-8-8h-8c-4.4 0-8 3.6-8 8s3.6 8 8 8zm40 0h8c4.4 0 8-3.6 8-8s-3.6-8-8-8h-8c-4.4 0-8 3.6-8 8s3.6 8 8 8zm40 0h8c4.4 0 8-3.6 8-8s-3.6-8-8-8h-8c-4.4 0-8 3.6-8 8s3.6 8 8 8zm80 0h8c4.4 0 8-3.6 8-8s-3.6-8-8-8h-8c-4.4 0-8 3.6-8 8s3.6 8 8 8zm40 0h8c4.4 0 8-3.6 8-8s-3.6-8-8-8h-8c-4.4 0-8 3.6-8 8s3.6 8 8 8zm-80 32h8c4.4 0 8-3.6 8-8s-3.6-8-8-8h-8c-4.4 0-8 3.6-8 8s3.6 8 8 8zm-120 0h8c4.4 0 8-3.6 8-8s-3.6-8-8-8h-8c-4.4 0-8 3.6-8 8s3.6 8 8 8zm40 0h8c4.4 0 8-3.6 8-8s-3.6-8-8-8h-8c-4.4 0-8 3.6-8 8s3.6 8 8 8zm40 0h8c4.4 0 8-3.6 8-8s-3.6-8-8-8h-8c-4.4 0-8 3.6-8 8s3.6 8 8 8zm80 0h8c4.4 0 8-3.6 8-8s-3.6-8-8-8h-8c-4.4 0-8 3.6-8 8s3.6 8 8 8zm40 0h8c4.4 0 8-3.6 8-8s-3.6-8-8-8h-8c-4.4 0-8 3.6-8 8s3.6 8 8 8zm-80 32h8c4.4 0 8-3.6 8-8s-3.6-8-8-8h-8c-4.4 0-8 3.6-8 8s3.6 8 8 8zm-120 0h8c4.4 0 8-3.6 8-8s-3.6-8-8-8h-8c-4.4 0-8 3.6-8 8s3.6 8 8 8zm40 0h8c4.4 0 8-3.6 8-8s-3.6-8-8-8h-8c-4.4 0-8 3.6-8 8s3.6 8 8 8zm40 0h8c4.4 0 8-3.6 8-8s-3.6-8-8-8h-8c-4.4 0-8 3.6-8 8s3.6 8 8 8zm80 0h8c4.4 0 8-3.6 8-8s-3.6-8-8-8h-8c-4.4 0-8 3.6-8 8s3.6 8 8 8zm40 0h8c4.4 0 8-3.6 8-8s-3.6-8-8-8h-8c-4.4 0-8 3.6-8 8s3.6 8 8 8zm-80 32h8c4.4 0 8-3.6 8-8s-3.6-8-8-8h-8c-4.4 0-8 3.6-8 8s3.6 8 8 8zm-120 0h8c4.4 0 8-3.6 8-8s-3.6-8-8-8h-8c-4.4 0-8 3.6-8 8s3.6 8 8 8zm40 0h8c4.4 0 8-3.6 8-8s-3.6-8-8-8h-8c-4.4 0-8 3.6-8 8s3.6 8 8 8zm40 0h8c4.4 0 8-3.6 8-8s-3.6-8-8-8h-8c-4.4 0-8 3.6-8 8s3.6 8 8 8zm80 0h8c4.4 0 8-3.6 8-8s-3.6-8-8-8h-8c-4.4 0-8 3.6-8 8s3.6 8 8 8zm40 0h8c4.4 0 8-3.6 8-8s-3.6-8-8-8h-8c-4.4 0-8 3.6-8 8s3.6 8 8 8zm-80 32h8c4.4 0 8-3.6 8-8s-3.6-8-8-8h-8c-4.4 0-8 3.6-8 8s3.6 8 8 8zm-120 0h8c4.4 0 8-3.6 8-8s-3.6-8-8-8h-8c-4.4 0-8 3.6-8 8s3.6 8 8 8zm40 0h8c4.4 0 8-3.6 8-8s-3.6-8-8-8h-8c-4.4 0-8 3.6-8 8s3.6 8 8 8zm40 0h8c4.4 0 8-3.6 8-8s-3.6-8-8-8h-8c-4.4 0-8 3.6-8 8s3.6 8 8 8zm80 0h8c4.4 0 8-3.6 8-8s-3.6-8-8-8h-8c-4.4 0-8 3.6-8 8s3.6 8 8 8zm40 0h8c4.4 0 8-3.6 8-8s-3.6-8-8-8h-8c-4.4 0-8 3.6-8 8s3.6 8 8 8zm-80 32h8c4.4 0 8-3.6 8-8s-3.6-8-8-8h-8c-4.4 0-8 3.6-8 8s3.6 8 8 8zm-120 0h8c4.4 0 8-3.6 8-8s-3.6-8-8-8h-8c-4.4 0-8 3.6-8 8s3.6 8 8 8zm40 0h8c4.4 0 8-3.6 8-8s-3.6-8-8-8h-8c-4.4 0-8 3.6-8 8s3.6 8 8 8zm40 0h8c4.4 0 8-3.6 8-8s-3.6-8-8-8h-8c-4.4 0-8 3.6-8 8s3.6 8 8 8zm80 0h8c4.4 0 8-3.6 8-8s-3.6-8-8-8h-8c-4.4 0-8 3.6-8 8s3.6 8 8 8zm40 0h8c4.4 0 8-3.6 8-8s-3.6-8-8-8h-8c-4.4 0-8 3.6-8 8s3.6 8 8 8z" fill="#ff8732" class="color000 svgShape"></path></svg></g></svg>