<svg id="SvgjsSvg1016" width="288" height="288" xmlns="http://www.w3.org/2000/svg" version="1.1" xmlns:xlink="http://www.w3.org/1999/xlink" xmlns:svgjs="http://svgjs.com/svgjs"><defs id="SvgjsDefs1017"></defs><g id="SvgjsG1018"><svg xmlns="http://www.w3.org/2000/svg" fill-rule="evenodd" stroke-linejoin="round" stroke-miterlimit="2" clip-rule="evenodd" viewBox="0 0 32 32" width="288" height="288"><path fill="#48ffe7" d="M4,8.06c-1.269,-0.602 -2,-1.307 -2,-2.06c0,-2.208 6.273,-4 14,-4c7.727,0 14,1.792 14,4c0,0.728 -0.683,1.412 -1.875,2c-0.041,0.02 -0.083,0.04 -0.125,0.06l0,8.85c1.269,0.602 2,1.307 2,2.06c0,0.728 -0.683,1.411 -1.875,2c-0.041,0.02 -0.083,0.04 -0.125,0.06l0,-4.12l-24,-0l0,4.12c-1.269,-0.602 -2,-1.307 -2,-2.06c0,-0.753 0.731,-1.458 2,-2.06l0,-8.85Z" class="colorff48be svgShape"></path><circle cx="16" cy="12" r="8" fill="#1effe1" class="color1ec4ff svgShape"></circle><path fill="#f2f2f2" d="M21.857,25l-11.714,0l-2.143,5l-4,0l0,-11c0,-3.311 2.689,-6 6,-6l12.039,0c3.293,0.021 5.961,2.701 5.961,6c0,-0 0,11 0,11l-4,0l-2.143,-5Z" class="colorf2f2f2 svgShape"></path><path fill="#32ffe4" d="M4,21.03l0,-12.97c0,0 -0.001,0 -0.002,0c-1.113,-0.033 -1.998,-0.945 -1.998,-2.059c0,-0.001 0,-0.001 0,-0.001l-0,13c-0,1.11 0.89,2.013 1.999,2.03c0.001,0 0.001,0 0.001,0Zm24,0l0,-12.97c0,0 0.001,0 0.002,0c1.113,-0.033 1.998,-0.945 1.998,-2.059c0,-0.001 0,-0.001 0,-0.001l0,13c0,1.11 -0.89,2.013 -1.999,2.03c-0.001,0 -0.001,0 -0.001,0Z" class="colorffe032 svgShape"></path><path fill="#1effe1" d="M12.5,23.5c0.828,0 1.5,0.672 1.5,1.5c0,0.828 -0.672,1.5 -1.5,1.5c-0.828,0 -1.5,-0.672 -1.5,-1.5c0,-0.828 0.672,-1.5 1.5,-1.5Zm7,0c0.828,0 1.5,0.672 1.5,1.5c0,0.828 -0.672,1.5 -1.5,1.5c-0.828,0 -1.5,-0.672 -1.5,-1.5c0,-0.828 0.672,-1.5 1.5,-1.5Z" class="color1ec4ff svgShape"></path><path fill="#32ffe4" d="M23,21c-0,-0.552 -0.448,-1 -1,-1c-0.552,0 -1,0.448 -1,1c0,0.552 0.448,1 1,1c0.552,-0 1,-0.448 1,-1Zm-2,-2c-0,-0.552 -0.448,-1 -1,-1c-0.552,0 -1,0.448 -1,1c0,0.552 0.448,1 1,1c0.552,-0 1,-0.448 1,-1Zm4,0c-0,-0.552 -0.448,-1 -1,-1c-0.552,0 -1,0.448 -1,1c0,0.552 0.448,1 1,1c0.552,-0 1,-0.448 1,-1Zm-2,-2c-0,-0.552 -0.448,-1 -1,-1c-0.552,0 -1,0.448 -1,1c0,0.552 0.448,1 1,1c0.552,-0 1,-0.448 1,-1Z" class="colorffe032 svgShape"></path><path fill="#48ffe7" d="M9,20l0,-2l2,-0l-0,2l-2,-0l0,2l2,-0l0,-2l2,-0l0,-2l-2,-0l0,-2l-2,-0l0,2l-2,-0l0,2l2,-0Z" class="colorff48be svgShape"></path><path d="M1.5,6l0,12.97c0,0.406 0.147,0.805 0.445,1.186c0.327,0.416 0.852,0.819 1.555,1.184l0,3.66c0,0.276 0.224,0.5 0.5,0.5c0.276,-0 0.5,-0.224 0.5,-0.5l0,-6c0,-3.036 2.464,-5.5 5.5,-5.5c0,0 12.037,0 12.037,0c3.018,0.02 5.463,2.477 5.463,5.5l0,10.5l-3.17,0c-0,-0 -2.013,-4.697 -2.013,-4.697c-0.079,-0.184 -0.26,-0.303 -0.46,-0.303l-0.42,0c-0.222,-0.862 -1.006,-1.5 -1.937,-1.5c-0.931,0 -1.715,0.638 -1.937,1.5l-3.126,0c-0.222,-0.862 -1.006,-1.5 -1.937,-1.5c-0.931,0 -1.715,0.638 -1.937,1.5l-0.42,0c-0.2,0 -0.381,0.119 -0.46,0.303l-2.013,4.697c0,0 -3.17,0 -3.17,0c0,0 -0,-0.5 -0,-0.5c0,-0.276 -0.224,-0.5 -0.5,-0.5c-0.276,-0 -0.5,0.224 -0.5,0.5l-0,0.5l-0.5,0c-0.276,0 -0.5,0.224 -0.5,0.5c0,0.276 0.224,0.5 0.5,0.5l6,0c0.276,0 0.5,-0.224 0.5,-0.5c0,-0.276 -0.224,-0.5 -0.5,-0.5l-0.242,0l1.715,-4l0.09,0c0.222,0.862 1.006,1.5 1.937,1.5c0.931,0 1.715,-0.638 1.937,-1.5l3.126,0c0.222,0.862 1.006,1.5 1.937,1.5c0.931,0 1.715,-0.638 1.937,-1.5l0.09,0c0,0 1.154,2.692 1.715,4l-0.242,0c-0.276,0 -0.5,0.224 -0.5,0.5c0,0.276 0.224,0.5 0.5,0.5l6,0c0.276,0 0.5,-0.224 0.5,-0.5c0,-0.276 -0.224,-0.5 -0.5,-0.5l-0.5,0l0,-8.16c0.722,-0.375 1.257,-0.79 1.582,-1.219c0.28,-0.37 0.418,-0.757 0.418,-1.151l-0,-12.979c-0.005,-0.798 -0.62,-1.604 -1.822,-2.267c-2.377,-1.309 -7.163,-2.224 -12.678,-2.224c-5.515,0 -10.301,0.915 -12.678,2.224c-1.207,0.665 -1.822,1.476 -1.822,2.276Zm2.5,20.5c0.276,0 0.5,0.224 0.5,0.5c-0,0.276 -0.224,0.5 -0.5,0.5c-0.276,-0 -0.5,-0.224 -0.5,-0.5c-0,-0.276 0.224,-0.5 0.5,-0.5Zm15.5,-2.5c0.552,0 1,0.448 1,1c0,0.552 -0.448,1 -1,1c-0.552,0 -1,-0.448 -1,-1c0,-0.552 0.448,-1 1,-1Zm-7,0c0.552,0 1,0.448 1,1c0,0.552 -0.448,1 -1,1c-0.552,0 -1,-0.448 -1,-1c0,-0.552 0.448,-1 1,-1Zm8.146,-6.354c-0.196,-0.094 -0.415,-0.146 -0.646,-0.146c-0.828,0 -1.5,0.672 -1.5,1.5c0,0.828 0.672,1.5 1.5,1.5c0.231,-0 0.45,-0.052 0.646,-0.146c-0.094,0.196 -0.146,0.415 -0.146,0.646c0,0.828 0.672,1.5 1.5,1.5c0.828,-0 1.5,-0.672 1.5,-1.5c-0,-0.231 -0.052,-0.45 -0.146,-0.646c0.196,0.094 0.415,0.146 0.646,0.146c0.828,-0 1.5,-0.672 1.5,-1.5c-0,-0.828 -0.672,-1.5 -1.5,-1.5c-0.231,0 -0.45,0.052 -0.646,0.146c0.094,-0.196 0.146,-0.415 0.146,-0.646c-0,-0.828 -0.672,-1.5 -1.5,-1.5c-0.828,0 -1.5,0.672 -1.5,1.5c0,0.231 0.052,0.45 0.146,0.646Zm-12.146,-0.146l-1.5,-0c-0.276,0 -0.5,0.224 -0.5,0.5l0,2c0,0.276 0.224,0.5 0.5,0.5l1.5,-0l0,1.5c0,0.276 0.224,0.5 0.5,0.5l2,-0c0.276,-0 0.5,-0.224 0.5,-0.5l0,-1.5c0,-0 1.5,-0 1.5,-0c0.276,-0 0.5,-0.224 0.5,-0.5l0,-2c0,-0.276 -0.224,-0.5 -0.5,-0.5l-1.5,-0c0,-0 0,-1.5 0,-1.5c0,-0.276 -0.224,-0.5 -0.5,-0.5l-2,-0c-0.276,0 -0.5,0.224 -0.5,0.5l0,1.5Zm14,3.5c-0,0.276 -0.224,0.5 -0.5,0.5c-0.276,0 -0.5,-0.224 -0.5,-0.5c-0,-0.276 0.224,-0.5 0.5,-0.5c0.276,-0 0.5,0.224 0.5,0.5l-0,0Zm-12,-0.5l0,1c-0,-0 -1,-0 -1,-0c-0,-0 -0,-1 -0,-1l1,0Zm-8,-12.766l0,11.236c0,0.258 0.146,0.498 0.38,0.735c0.165,0.168 0.374,0.33 0.62,0.485l0,-11.82c-0.389,-0.202 -0.723,-0.415 -1,-0.636Zm26,12.456c0.26,-0.164 0.478,-0.335 0.648,-0.513c0.217,-0.228 0.352,-0.459 0.352,-0.707l0,-11.236c-0.277,0.221 -0.611,0.434 -1,0.636l0,11.82Zm-5.854,-1.836c-0.196,0.094 -0.415,0.146 -0.646,0.146c-0.231,0 -0.45,-0.052 -0.646,-0.146c0.094,0.196 0.146,0.415 0.146,0.646c-0,0.231 -0.052,0.45 -0.146,0.646c0.196,-0.094 0.415,-0.146 0.646,-0.146c0.231,-0 0.45,0.052 0.646,0.146c-0.094,-0.196 -0.146,-0.415 -0.146,-0.646c-0,-0.231 0.052,-0.45 0.146,-0.646Zm-2.146,0.646c-0,0.276 -0.224,0.5 -0.5,0.5c-0.276,0 -0.5,-0.224 -0.5,-0.5c-0,-0.276 0.224,-0.5 0.5,-0.5c0.276,-0 0.5,0.224 0.5,0.5l-0,0Zm4,0c-0,0.276 -0.224,0.5 -0.5,0.5c-0.276,0 -0.5,-0.224 -0.5,-0.5c-0,-0.276 0.224,-0.5 0.5,-0.5c0.276,-0 0.5,0.224 0.5,0.5l-0,0Zm-16,-0.5l-0,1c-0,-0 -1,-0 -1,-0c-0,-0 -0,-1 -0,-1l1,0Zm3,-0l1,-0c0,0 -0,1 -0,1l-1,-0l-0,-1Zm-2,0l0,1l1,-0l-0,-1l-1,0Zm13,-1.5c-0,0.276 -0.224,0.5 -0.5,0.5c-0.276,0 -0.5,-0.224 -0.5,-0.5c-0,-0.276 0.224,-0.5 0.5,-0.5c0.276,-0 0.5,0.224 0.5,0.5l-0,0Zm-12,0.5l-1,-0c-0,-0 -0,-1 -0,-1c0,-0 1,-0 1,-0l-0,1Zm13.944,-4.524c1.267,0.515 2.334,1.418 3.056,2.561l0,-7.477c0,-0.193 0.111,-0.369 0.286,-0.452c0.04,-0.018 0.079,-0.037 0.117,-0.056c0.535,-0.264 0.958,-0.544 1.245,-0.845c0.217,-0.228 0.352,-0.459 0.352,-0.707c0,-0.221 -0.108,-0.429 -0.285,-0.634c-0.234,-0.27 -0.581,-0.524 -1.02,-0.766c-2.285,-1.259 -6.893,-2.1 -12.195,-2.1c-5.302,-0 -9.91,0.841 -12.195,2.1c-0.439,0.242 -0.786,0.496 -1.02,0.766c-0.177,0.205 -0.285,0.413 -0.285,0.634c0,0.258 0.146,0.498 0.38,0.736c0.308,0.311 0.762,0.601 1.334,0.872c0.175,0.083 0.286,0.259 0.286,0.452l0,7.477c0.722,-1.143 1.789,-2.046 3.056,-2.561c-0.037,-0.32 -0.056,-0.646 -0.056,-0.976c0,-4.691 3.809,-8.5 8.5,-8.5c4.691,0 8.5,3.809 8.5,8.5l-0,0c-0,0.33 -0.019,0.656 -0.056,0.976Zm-1.081,-0.333c0.089,-0.207 0.137,-0.422 0.137,-0.643l-0,-0c0,-0.738 -0.515,-1.396 -1.326,-1.949c-0.53,-0.361 -1.185,-0.672 -1.932,-0.919c0.167,0.894 0.258,1.86 0.258,2.868c0,0.168 -0.003,0.335 -0.008,0.5l1.55,0c0.453,0.003 0.895,0.052 1.321,0.143Zm-11.856,-0.143c-0.004,-0.165 -0.007,-0.332 -0.007,-0.5c0,-1.008 0.091,-1.974 0.258,-2.868c-0.747,0.247 -1.402,0.558 -1.932,0.919c-0.811,0.553 -1.326,1.211 -1.326,1.949c0,0.221 0.048,0.436 0.137,0.643c0.439,-0.094 0.895,-0.143 1.363,-0.143l1.507,0Zm7.985,0c0.005,-0.165 0.008,-0.332 0.008,-0.5c0,-1.128 -0.119,-2.199 -0.336,-3.164c-0.965,-0.217 -2.036,-0.336 -3.164,-0.336c-1.128,0 -2.199,0.119 -3.164,0.336c-0.217,0.965 -0.336,2.036 -0.336,3.164c0,0.168 0.003,0.335 0.008,0.5l6.984,0Zm-6.032,-7.558c-2.098,0.755 -3.763,2.421 -4.518,4.518c0.102,-0.08 0.209,-0.158 0.321,-0.235c0.727,-0.496 1.666,-0.912 2.751,-1.211c0.299,-1.085 0.715,-2.024 1.211,-2.751c0.077,-0.112 0.155,-0.219 0.235,-0.321Zm5.08,-0c0.08,0.102 0.158,0.209 0.235,0.321c0.496,0.727 0.912,1.666 1.211,2.751c1.085,0.299 2.024,0.715 2.751,1.211c0.112,0.077 0.219,0.155 0.321,0.235c-0.755,-2.097 -2.42,-3.763 -4.518,-4.518Zm-2.54,-0.442c-0.738,0 -1.396,0.515 -1.949,1.326c-0.361,0.53 -0.672,1.185 -0.919,1.932c0.894,-0.167 1.86,-0.258 2.868,-0.258c1.008,0 1.974,0.091 2.868,0.258c-0.247,-0.747 -0.558,-1.402 -0.919,-1.932c-0.553,-0.811 -1.211,-1.326 -1.949,-1.326Z" fill="#000000" class="color000 svgShape"></path></svg></g></svg>